ffmpeg version 6.1.1-3ubuntu5 Copyright (c) 2000-2023 the FFmpeg developers
  built with gcc 13 (Ubuntu 13.2.0-23ubuntu3)
  configuration: --prefix=/usr --extra-version=3ubuntu5 --toolchain=hardened --libdir=/usr/lib/x86_64-linux-gnu --incdir=/usr/include/x86_64-linux-gnu --arch=amd64 --enable-gpl --disable-stripping --disable-omx --enable-gnutls --enable-libaom --enable-libass --enable-libbs2b --enable-libcaca --enable-libcdio --enable-libcodec2 --enable-libdav1d --enable-libflite --enable-libfontconfig --enable-libfreetype --enable-libfribidi --enable-libglslang --enable-libgme --enable-libgsm --enable-libharfbuzz --enable-libmp3lame --enable-libmysofa --enable-libopenjpeg --enable-libopenmpt --enable-libopus --enable-librubberband --enable-libshine --enable-libsnappy --enable-libsoxr --enable-libspeex --enable-libtheora --enable-libtwolame --enable-libvidstab --enable-libvorbis --enable-libvpx --enable-libwebp --enable-libx265 --enable-libxml2 --enable-libxvid --enable-libzimg --enable-openal --enable-opencl --enable-opengl --disable-sndio --enable-libvpl --disable-libmfx --enable-libdc1394 --enable-libdrm --enable-libiec61883 --enable-chromaprint --enable-frei0r --enable-ladspa --enable-libbluray --enable-libjack --enable-libpulse --enable-librabbitmq --enable-librist --enable-libsrt --enable-libssh --enable-libsvtav1 --enable-libx264 --enable-libzmq --enable-libzvbi --enable-lv2 --enable-sdl2 --enable-libplacebo --enable-librav1e --enable-pocketsphinx --enable-librsvg --enable-libjxl --enable-shared
  libavutil      58. 29.100 / 58. 29.100
  libavcodec     60. 31.102 / 60. 31.102
  libavformat    60. 16.100 / 60. 16.100
  libavdevice    60.  3.100 / 60.  3.100
  libavfilter     9. 12.100 /  9. 12.100
  libswscale      7.  5.100 /  7.  5.100
  libswresample   4. 12.100 /  4. 12.100
  libpostproc    57.  3.100 / 57.  3.100
Routing option strict to both codec and muxer layer
[Parsed_scale_0 @ 0x5d69e0cbc1c0] w:1280 h:720 flags:'' interl:0
[Parsed_scale_2 @ 0x5d69e0cc9880] w:1280 h:720 flags:'' interl:0
-vsync is deprecated. Use -fps_mode
Passing a number to -vsync is deprecated, use a string argument as described in the manual.
[h264 @ 0x5d69e0cd2940] Reinit context to 848x480, pix_fmt: yuv420p
Input #0, mov,mp4,m4a,3gp,3g2,mj2, from '/var/www/html/project/media/video/original/1000144749.mp4':
  Metadata:
    major_brand     : isom
    minor_version   : 512
    compatible_brands: isomiso2avc1mp41
    creation_time   : 2026-03-12T10:08:37.000000Z
    date            : UTC 2026-03-12 10:26:04
    encoder         : Lavf58.76.100
  Duration: 00:00:21.78, start: 0.000000, bitrate: 2801 kb/s
  Stream #0:0[0x1](und): Video: h264 (High), 1 reference frame (avc1 / 0x31637661), yuv420p(tv, bt470bg/bt470bg/smpte170m, progressive, left), 848x480, 2671 kb/s, SAR 1:1 DAR 53:30, 30 fps, 30 tbr, 90k tbn (default)
    Metadata:
      creation_time   : 2026-03-12T10:08:37.000000Z
      handler_name    : VideoHandler
      vendor_id       : [0][0][0][0]
  Stream #0:1[0x2](und): Audio: aac (LC) (mp4a / 0x6134706D), 44100 Hz, stereo, fltp, 128 kb/s (default)
    Metadata:
      creation_time   : 2026-03-12T10:08:37.000000Z
      handler_name    : SoundHandler
      vendor_id       : [0][0][0][0]
Input #1, png_pipe, from '/var/www/html/project/static/images/templates/logo.png':
  Duration: N/A, bitrate: N/A
  Stream #1:0: Video: png, 1 reference frame, rgba(pc, gbr/unknown/unknown), 1920x1080 [SAR 2835:2835 DAR 16:9], 25 fps, 25 tbr, 25 tbn
[out#0/mp4 @ 0x5d69e1b49700] Creating output stream from unlabeled output of complex filtergraph 0. This overrides automatic video mapping.
[vost#0:0/libx264 @ 0x5d69e1b4a480] Created video stream from complex filtergraph 0:[overlay:default]
[vost#0:0/libx264 @ 0x5d69e1b4a480] 
[out#0/mp4 @ 0x5d69e1b49700] No explicit maps, mapping streams automatically...
[aost#0:1/aac @ 0x5d69e1b4be80] Created audio stream from input stream 0:1
Stream mapping:
  Stream #0:0 (h264) -> scale:default (graph 0)
  Stream #1:0 (png) -> scale:default (graph 0)
  overlay:default (graph 0) -> Stream #0:0 (libx264)
  Stream #0:1 -> #0:1 (aac (native) -> aac (native))
Press [q] to stop, [?] for help
[h264 @ 0x5d69e0dfe500] Reinit context to 848x480, pix_fmt: yuv420p
[graph_1_in_0_1 @ 0x5d69e0cbc1c0] tb:1/44100 samplefmt:fltp samplerate:44100 chlayout:stereo
[in#1/png_pipe @ 0x5d69e0d25e80] EOF while reading input
[in#1/png_pipe @ 0x5d69e0d25e80] Terminating demuxer thread
[vist#1:0/png @ 0x5d69e0cc7a80] Decoder thread received EOF packet
[vist#1:0/png @ 0x5d69e0cc7a80] Decoder returned EOF, finishing
[vist#1:0/png @ 0x5d69e0cc7a80] Terminating decoder thread
[Parsed_scale_0 @ 0x5d69e1d5b7c0] w:1280 h:720 flags:'' interl:0
[Parsed_scale_2 @ 0x5d69e1d68a00] w:1280 h:720 flags:'' interl:0
[graph 0 input from stream 0:0 @ 0x5d69e1d58600] w:848 h:480 pixfmt:yuv420p tb:1/90000 fr:30/1 sar:1/1
[graph 0 input from stream 1:0 @ 0x5d69e1d769c0] w:1920 h:1080 pixfmt:rgba tb:1/25 fr:25/1 sar:2835/2835
[Parsed_scale_0 @ 0x5d69e1d5b7c0] w:848 h:480 fmt:yuv420p sar:1/1 -> w:1280 h:720 fmt:yuv420p sar:159/160 flags:0x00000004
[Parsed_setsar_1 @ 0x5d69e1d68880] w:1280 h:720 sar:159/160 dar:53/30 -> sar:1/1 dar:16/9
[Parsed_scale_2 @ 0x5d69e1d68a00] w:1920 h:1080 fmt:rgba sar:2835/2835 -> w:1280 h:720 fmt:yuva420p sar:1/1 flags:0x00000004
[Parsed_setsar_3 @ 0x5d69e1d75b40] w:1280 h:720 sar:1/1 dar:16/9 -> sar:1/1 dar:16/9
[Parsed_overlay_4 @ 0x5d69e1d75dc0] main w:1280 h:720 fmt:yuv420p overlay w:1280 h:720 fmt:yuva420p
[Parsed_overlay_4 @ 0x5d69e1d75dc0] [framesync @ 0x5d69e0cd7928] Selected 1/90000 time base
[Parsed_overlay_4 @ 0x5d69e1d75dc0] [framesync @ 0x5d69e0cd7928] Sync level 2
[Parsed_scale_0 @ 0x5d69e1d5b7c0] w:848 h:480 fmt:yuv420p sar:1/1 -> w:1280 h:720 fmt:yuv420p sar:159/160 flags:0x00000004
    Last message repeated 2 times
[Parsed_scale_2 @ 0x5d69e1d68a00] w:1920 h:1080 fmt:rgba sar:2835/2835 -> w:1280 h:720 fmt:yuva420p sar:1/1 flags:0x00000004
    Last message repeated 2 times
[libx264 @ 0x5d69e1b4a840] using SAR=1/1
[libx264 @ 0x5d69e1b4a840] using cpu capabilities: MMX2 SSE2Fast SSSE3 SSE4.2 AVX FMA3 BMI2 AVX2
[libx264 @ 0x5d69e1b4a840] profile High, level 3.1, 4:2:0, 8-bit
[libx264 @ 0x5d69e1b4a840] 264 - core 164 r3108 31e19f9 - H.264/MPEG-4 AVC codec - Copyleft 2003-2023 - http://www.videolan.org/x264.html - options: cabac=1 ref=1 deblock=1:0:0 analyse=0x3:0x113 me=hex subme=2 psy=1 psy_rd=1.00:0.00 mixed_ref=0 me_range=16 chroma_me=1 trellis=0 8x8dct=1 cqm=0 deadzone=21,11 fast_pskip=1 chroma_qp_offset=0 threads=22 lookahead_threads=5 sliced_threads=0 nr=0 decimate=1 interlaced=0 bluray_compat=0 constrained_intra=0 bframes=3 b_pyramid=2 b_adapt=1 b_bias=0 direct=1 weightb=1 open_gop=0 weightp=1 keyint=250 keyint_min=25 scenecut=40 intra_refresh=0 rc_lookahead=10 rc=crf mbtree=1 crf=18.0 qcomp=0.60 qpmin=0 qpmax=69 qpstep=4 ip_ratio=1.40 aq=1:1.00
Output #0, mp4, to '/var/www/html/project/media/video/watermarks/1000144749.mp4':
  Metadata:
    major_brand     : isom
    minor_version   : 512
    compatible_brands: isomiso2avc1mp41
    date            : UTC 2026-03-12 10:26:04
    encoder         : Lavf60.16.100
  Stream #0:0: Video: h264, 1 reference frame (avc1 / 0x31637661), yuv420p(tv, bt470bg/bt470bg/smpte170m, progressive, left), 1280x720 (0x0) [SAR 1:1 DAR 16:9], q=2-31, 30 fps, 15360 tbn
    Metadata:
      encoder         : Lavc60.31.102 libx264
    Side data:
      cpb: bitrate max/min/avg: 0/0/0 buffer size: 0 vbv_delay: N/A
  Stream #0:1(und): Audio: aac (LC) (mp4a / 0x6134706D), 44100 Hz, stereo, fltp, delay 1024, 128 kb/s (default)
    Metadata:
      creation_time   : 2026-03-12T10:08:37.000000Z
      handler_name    : SoundHandler
      vendor_id       : [0][0][0][0]
      encoder         : Lavc60.31.102 aac
[in#0/mov,mp4,m4a,3gp,3g2,mj2 @ 0x5d69e0cd1d80] EOF while reading input
[in#0/mov,mp4,m4a,3gp,3g2,mj2 @ 0x5d69e0cd1d80] Terminating demuxer thread
[vist#0:0/h264 @ 0x5d69e0d23a80] Decoder thread received EOF packet
[vist#0:0/h264 @ 0x5d69e0d23a80] Decoder returned EOF, finishing
[vist#0:0/h264 @ 0x5d69e0d23a80] Terminating decoder thread
[Parsed_overlay_4 @ 0x5d69e1d75dc0] [framesync @ 0x5d69e0cd7928] Sync level 0
[aist#0:1/aac @ 0x5d69e0d28900] Decoder thread received EOF packet
[aist#0:1/aac @ 0x5d69e0d28900] Decoder returned EOF, finishing
[aist#0:1/aac @ 0x5d69e0d28900] Terminating decoder thread
No more output streams to write to, finishing.
[out#0/mp4 @ 0x5d69e1b49700] All streams finished
[out#0/mp4 @ 0x5d69e1b49700] Terminating muxer thread
[AVIOContext @ 0x5d69e1cb0080] Statistics: 9419931 bytes written, 2 seeks, 39 writeouts
[out#0/mp4 @ 0x5d69e1b49700] Output file #0 (/var/www/html/project/media/video/watermarks/1000144749.mp4):
[out#0/mp4 @ 0x5d69e1b49700]   Output stream #0:0 (video): 652 frames encoded; 652 packets muxed (9045614 bytes); 
[out#0/mp4 @ 0x5d69e1b49700]   Output stream #0:1 (audio): 938 frames encoded (960512 samples); 939 packets muxed (349492 bytes); 
[out#0/mp4 @ 0x5d69e1b49700]   Total: 1591 packets (9395106 bytes) muxed
[out#0/mp4 @ 0x5d69e1b49700] video:8834kB audio:341kB subtitle:0kB other streams:0kB global headers:0kB muxing overhead: 0.264191%
frame=  652 fps=178 q=-1.0 Lsize=    9199kB time=00:00:21.75 bitrate=3463.7kbits/s speed=5.96x    
[AVIOContext @ 0x5d69e0cc96c0] Statistics: 1603 bytes written, 0 seeks, 8 writeouts
[libx264 @ 0x5d69e1b4a840] frame I:3     Avg QP:16.15  size: 64053
[libx264 @ 0x5d69e1b4a840] frame P:199   Avg QP:18.14  size: 27731
[libx264 @ 0x5d69e1b4a840] frame B:450   Avg QP:20.10  size:  7410
[libx264 @ 0x5d69e1b4a840] consecutive B-frames:  4.3%  8.0%  9.2% 78.5%
[libx264 @ 0x5d69e1b4a840] mb I  I16..4: 25.2% 33.1% 41.8%
[libx264 @ 0x5d69e1b4a840] mb P  I16..4: 16.0% 19.7%  3.2%  P16..4: 24.8% 16.6% 10.1%  0.0%  0.0%    skip: 9.5%
[libx264 @ 0x5d69e1b4a840] mb B  I16..4:  2.9%  1.6%  0.0%  B16..8: 27.9% 12.4%  1.2%  direct: 8.9%  skip:45.1%  L0:40.5% L1:44.3% BI:15.2%
[libx264 @ 0x5d69e1b4a840] 8x8 transform intra:46.9% inter:31.2%
[libx264 @ 0x5d69e1b4a840] coded y,uvDC,uvAC intra: 40.8% 27.7% 5.2% inter: 14.7% 10.9% 0.5%
[libx264 @ 0x5d69e1b4a840] i16 v,h,dc,p: 33% 46% 13%  9%
[libx264 @ 0x5d69e1b4a840] i8 v,h,dc,ddl,ddr,vr,hd,vl,hu: 17% 41% 19%  3%  4%  3%  7%  2%  4%
[libx264 @ 0x5d69e1b4a840] i4 v,h,dc,ddl,ddr,vr,hd,vl,hu: 22% 32% 16%  4%  6%  5%  8%  4%  5%
[libx264 @ 0x5d69e1b4a840] i8c dc,h,v,p: 68% 18% 13%  2%
[libx264 @ 0x5d69e1b4a840] Weighted P-Frames: Y:0.0% UV:0.0%
[libx264 @ 0x5d69e1b4a840] kb/s:3329.42
[aac @ 0x5d69e1b4c240] Qavg: 866.221
[in#0/mov,mp4,m4a,3gp,3g2,mj2 @ 0x5d69e0cd1d80] Input file #0 (/var/www/html/project/media/video/original/1000144749.mp4):
[in#0/mov,mp4,m4a,3gp,3g2,mj2 @ 0x5d69e0cd1d80]   Input stream #0:0 (video): 652 packets read (7258912 bytes); 652 frames decoded; 0 decode errors; 
[in#0/mov,mp4,m4a,3gp,3g2,mj2 @ 0x5d69e0cd1d80]   Input stream #0:1 (audio): 938 packets read (348486 bytes); 938 frames decoded; 0 decode errors (960512 samples); 
[in#0/mov,mp4,m4a,3gp,3g2,mj2 @ 0x5d69e0cd1d80]   Total: 1590 packets (7607398 bytes) demuxed
[AVIOContext @ 0x5d69e0cd2140] Statistics: 7672916 bytes read, 2 seeks
[in#1/png_pipe @ 0x5d69e0d25e80] Input file #1 (/var/www/html/project/static/images/templates/logo.png):
[in#1/png_pipe @ 0x5d69e0d25e80]   Input stream #1:0 (video): 1 packets read (111578 bytes); 1 frames decoded; 0 decode errors; 
[in#1/png_pipe @ 0x5d69e0d25e80]   Total: 1 packets (111578 bytes) demuxed
[AVIOContext @ 0x5d69e0ce5a40] Statistics: 111578 bytes read, 0 seeks
